# xmcd
#
# Track frame offsets: 
#        150
#        31496
#        67700
#        128642
#        149250
#        170775
#        211819
#        239696
#
# Disc length: 3638 seconds
#
# Revision: 1
# Processed by: cddbd v1.5.2PL0 Copyright (c) Steve Scherf et al.
# Submitted via: ExactAudioCopyFreeDBPlugin 1.0
#
DISCID=700e3408
DTITLE=His Name Is Alive - Sweet Earth Flower: A Tribute to Marion Bro
DTITLE=wn
DYEAR=2007
DGENRE=Jazz
TTITLE0=Sweet Earth Flying
TTITLE1=Juba Lee Brown
TTITLE2=Capricorn Moon (Live)
TTITLE3=November Cotton Flower
TTITLE4=Bismillahi 'Rrahmani 'Rrahim
TTITLE5=Geechee Recollections (Live)
TTITLE6=Geechee Recollections
TTITLE7=Sweet Earth Flying II (Live)
EXTD=YEAR: 2007
EXTT0=
EXTT1=
EXTT2=
EXTT3=
EXTT4=
EXTT5=
EXTT6=
EXTT7=
PLAYORDER=
